<svg id="Layer_2" data-name="Layer 2" xmlns="http://www.w3.org/2000/svg" viewBox="0 0 70.06 70.06"><defs><style>.cls-1,.cls-3{fill:none;stroke:#606161;stroke-miterlimit:10;}.cls-1{stroke-width:3.3px;}.cls-2{fill:#606161;}.cls-3{stroke-width:2px;}</style></defs><title>icon-protect</title><path class="cls-1" d="M50,74.47s-11.18-6.88-12.36-7.59a12.55,12.55,0,0,1-4.82-9.73V35.78a2.83,2.83,0,0,1,1.79-2.61L50,29.53h0L65.4,33.17a2.83,2.83,0,0,1,1.79,2.61V57.15a12.55,12.55,0,0,1-4.82,9.73C61.19,67.59,50,74.47,50,74.47Z" transform="translate(-14.97 -14.97)"/><path class="cls-2" d="M64,56.19V38.82a2.3,2.3,0,0,0-1.46-2.13L50,33.73h0V70.27h0L60.06,64.1A10.21,10.21,0,0,0,64,56.19Z" transform="translate(-14.97 -14.97)"/><circle class="cls-3" cx="35.03" cy="35.03" r="34.03"/></svg>