<svg id="Layer_5" data-name="Layer 5" xmlns="http://www.w3.org/2000/svg" viewBox="0 0 64.84 64.84"><defs><style>.cls-1{fill:#606161;}.cls-2{fill:none;stroke:#606161;stroke-miterlimit:10;stroke-width:2px;}</style></defs><title>icon-hook</title><path class="cls-1" d="M63.65,31.54a5.6,5.6,0,1,0-7.92,7.91,5.72,5.72,0,0,0,1.56,1.1V56.41a8.89,8.89,0,0,1-17.77,0,8.77,8.77,0,0,1,.86-3.79,18.5,18.5,0,0,0,2,1.28c.32.14,1.14,0,.83-1.43-.42-1.9-.05-4.22.66-7.08.24-1,0-1.24-.53-1.13-2.52.28-5.27,2.89-5.73,3.67l-.22.3a13.69,13.69,0,0,0,11,21.87h0A13.69,13.69,0,0,0,62.1,56.41V40.54a5.43,5.43,0,0,0,1.55-1.09,5.59,5.59,0,0,0,0-7.91Zm-2.88,5a1.52,1.52,0,0,1-2.16,0,1.56,1.56,0,0,1-.45-1.08,1.54,1.54,0,0,1,.45-1.08,1.53,1.53,0,0,1,2.61,1.08A1.52,1.52,0,0,1,60.77,36.58Z" transform="translate(-17.58 -17.58)"/><circle class="cls-2" cx="32.42" cy="32.42" r="31.42"/></svg>