<svg id="Layer_6" data-name="Layer 6" xmlns="http://www.w3.org/2000/svg" viewBox="0 0 66.76 66.76"><defs><style>.cls-1{fill:#606161;}.cls-2{fill:none;stroke:#606161;stroke-miterlimit:10;stroke-width:2.29px;}</style></defs><title>icon-partnership</title><path class="cls-1" d="M39.15,40.72s.94,1.15,4.38,1.26c0,0-3.17,4.06-2.57,5.55s5,.8,6.79-2.59l1.72-.44A73.43,73.43,0,0,1,63.1,53.35c1.22,1.7-.14,3.24-1.91,2.53l-6-3.7A1,1,0,0,0,54.06,52c-.57.3.5,1,.5,1l5.93,3.52s.33,2.74-2.19,2.07l-5.41-3.12s-1.21-.09-.41.81l5.21,2.89s.41,2.44-2.51,1.93L51,58.94s-1.09-.19-.39.68l4.19,2s-1,1.84-2.75,1.46l-3.28-.72a.34.34,0,0,1-.22-.49c.52-.9,1.38-3.08-2-3.88,0,0,0-2.83-2.63-2.94a2.64,2.64,0,0,0-1.29-2.7,2.23,2.23,0,0,0-3.21,1.16s-1.44-3.25-4-1l-1.77-2.15Z" transform="translate(-16.62 -16.62)"/><path class="cls-1" d="M41.91,47.21s2.76,1,5.29-2.88l2.24-.9s8.71,4.39,13.8,9.06a3.53,3.53,0,0,0,2-1.34c.88-1.15,1.15-.93,1.15-.93L60.88,40.6a5.22,5.22,0,0,1-3.14.22,20.56,20.56,0,0,0-12.17-.1,28.58,28.58,0,0,1-2.14,2.89C42.72,44.34,41.26,46.41,41.91,47.21Z" transform="translate(-16.62 -16.62)"/><rect class="cls-1" x="41.65" y="55.53" width="3.06" height="6.3" rx="1.53" transform="translate(27.72 -30.78) rotate(37.26)"/><rect class="cls-1" x="38.81" y="52.49" width="3.06" height="7.38" rx="1.53" transform="matrix(0.8, 0.61, -0.61, 0.8, 25.63, -29.58)"/><rect class="cls-1" x="44.62" y="58.68" width="3.06" height="4.9" rx="1.53" transform="translate(29.82 -32.08) rotate(37.26)"/><rect class="cls-1" x="35.26" y="52.41" width="3.06" height="4.08" rx="1.53" transform="translate(23.86 -27.78) rotate(37.26)"/><rect class="cls-1" x="31.95" y="36.59" width="4.09" height="14.55" transform="translate(9.87 -27.74) rotate(30)"/><rect class="cls-1" x="63.96" y="36.7" width="4.09" height="14.55" transform="translate(128.53 32.43) rotate(150)"/><circle class="cls-2" cx="33.38" cy="33.38" r="32.24"/></svg>