<svg id="Layer_4" data-name="Layer 4" xmlns="http://www.w3.org/2000/svg" viewBox="0 0 67 67"><defs><style>.cls-1{fill:#606161;}.cls-2{fill:#fff;}.cls-3{fill:none;stroke:#606161;stroke-miterlimit:10;stroke-width:2px;}</style></defs><title>icon-breed</title><path class="cls-1" d="M48.08,60.4s17.83.34,14.73-8.73-19.5-8.22-19.5-8.22S28.75,41.6,31.81,35c3.83-5.89,20.08-8.51,28.52-.41,6.65,5.9,8.64,13.09,7.53,21S58.53,70.36,56,71c0,0-2.49-1.49,2.63-7.62C58.58,63.34,50.05,66.41,48.08,60.4Z" transform="translate(-16.5 -16.5)"/><path class="cls-2" d="M48.57,32.72S50,38,47.31,41.94c0,0,16.34.44,17.52,11.57,0,0,3.71-11.73-14.48-16.75C50.35,36.76,50.42,33.3,48.57,32.72Z" transform="translate(-16.5 -16.5)"/><path class="cls-1" d="M43.74,44.78l4.11.35s2.08,3,1,6.16C48.89,51.29,44.87,50.66,43.74,44.78Z" transform="translate(-16.5 -16.5)"/><path class="cls-1" d="M52.22,29.19s14.25-2.27,16.4,10.6a4.76,4.76,0,0,0-3.18-.71A19.39,19.39,0,0,0,52.22,29.19Z" transform="translate(-16.5 -16.5)"/><circle class="cls-2" cx="25.18" cy="17.91" r="1.77"/><circle class="cls-3" cx="33.5" cy="33.5" r="32.5"/></svg>