<svg id="Layer_7" data-name="Layer 7" xmlns="http://www.w3.org/2000/svg" viewBox="0 0 64.79 64.79"><defs><style>.cls-1{fill:#606161;}.cls-2{fill:none;stroke:#606161;stroke-miterlimit:10;stroke-width:2px;}</style></defs><title>icon-public</title><path class="cls-1" d="M44.25,63.29l1.38-1,.47-5.19,3.46-2.36s2.42-.48,1.54,1.68L49.2,57.8a5.49,5.49,0,0,0-.09,3.76A9.07,9.07,0,0,0,54.39,67l-5.87,3.54Z" transform="translate(-17.61 -17.61)"/><rect class="cls-1" x="51.07" y="54.86" width="2.48" height="6.7" rx="1.24" transform="translate(53.91 -35.27) rotate(56.15)"/><rect class="cls-1" x="55.36" y="61.67" width="2.48" height="5.32" rx="1.24" transform="translate(60.89 -36.12) rotate(56.15)"/><rect class="cls-1" x="53.47" y="59.17" width="2.48" height="6.87" rx="1.24" transform="translate(58.63 -35.32) rotate(56.15)"/><rect class="cls-1" x="52.13" y="56.79" width="2.48" height="7.41" rx="1.24" transform="translate(56.28 -35.14) rotate(56.15)"/><rect class="cls-1" x="42.4" y="63.73" width="3.38" height="8.85" transform="translate(-45.78 13.57) rotate(-30)"/><polygon class="cls-1" points="31.05 32.95 28 34.64 29.71 37.74 32.73 35.99 31.05 32.95"/><path class="cls-1" d="M57.24,66.07l-3,1.75.08.14a1.74,1.74,0,1,0,3.05-1.69Z" transform="translate(-17.61 -17.61)"/><path class="cls-1" d="M40.23,46.29,38,42.69s-.85-1.35,1.12-2.55c1.75-1.08,6.72-4.32,7.74-5a2.6,2.6,0,0,0,.36-.3c.67-.65,3-3.06,2.85-4.56-.16-1.75,0-4.44,1.9-2.37L62.48,46.29s.9,2.4-1.65,1.54c-1.5-1.54-4.57-1.82-7.08-.68s-8.15,4.38-8.15,4.38a1.67,1.67,0,0,1-2.41,0Z" transform="translate(-17.61 -17.61)"/><path class="cls-1" d="M56.47,34l3.46,5.77A3.36,3.36,0,0,0,56.47,34Z" transform="translate(-17.61 -17.61)"/><path class="cls-1" d="M37.68,48.71a2.26,2.26,0,0,0,3.12.8l-2.32-3.92A2.28,2.28,0,0,0,37.68,48.71Z" transform="translate(-17.61 -17.61)"/><circle class="cls-2" cx="32.39" cy="32.39" r="31.39"/></svg>